<svg fill="none" height="190" viewBox="0 0 150 190" width="150" xmlns="http://www.w3.org/2000/svg"><path clip-rule="evenodd" d="m104.32 104.69c1.55-2.57 1.56-5.9199 1.56-9.2299 0-15.58-16.88-12.46-16.88-12.46s.38-12.88-13.43-12.88c-12.75 0-14.18 12.71-14.18 12.71s-17-1.58-17 14.08c-.0213 2.4393.5665 4.8449 1.71 6.9999l-5.36 2.46c-1.8152-3.131-2.7612-6.6905-2.74-10.3099 0-9.64 6.7-19.71 19-19.71 2.59-8.11 9.7-13.25 18.62-13.25 10.51 0 16.19 6.52 18.24 13.24 10.93 0 18.56 9.19 18.56 19.35.07 4.4239-1.18 8.7689-3.59 12.4799zm-36.22 16.83c.08-18.19 8-16.25 9-28.1699l3.1-.45c5.9 9.0699 7.54 17.7199 3.22 29.0699 5.76-1.92 6.85-11.08 21.91-10l1.36.53s-4.14 18.69-26.14 22.27l-2.35 13.3-12.2-2.07 3.7-11c-17.85-2.51-26.27-23.3-26.27-23.3l2.32-2.3c7.25 5.83 14.84 1.75 22.35 12.12z" fill="#000" fill-rule="evenodd"/></svg>